<mxfile host="Electron" modified="2024-04-13T14:43:02.977Z" agent="Mozilla/5.0 (X11; Linux x86_64) AppleWebKit/537.36 (KHTML, like Gecko) draw.io/24.1.0 Chrome/120.0.6099.109 Electron/28.1.0 Safari/537.36" etag="GOo8Rv9y-Wcy3bsEJX-D" version="24.1.0" type="device">
  <diagram name="Page-1" id="WPf6wrc-Pd1-8DKw8K7x">
    <mxGraphModel dx="1839" dy="581" grid="1" gridSize="10" guides="1" tooltips="1" connect="1" arrows="1" fold="1" page="1" pageScale="1" pageWidth="850" pageHeight="1100" math="1" shadow="0">
      <root>
        <mxCell id="0" />
        <mxCell id="1" parent="0" />
        <mxCell id="8hWpj6Z_eRL1QJvixAke-1" value="$$f$$" style="rounded=0;whiteSpace=wrap;html=1;" parent="1" vertex="1">
          <mxGeometry x="280" y="280" width="40" height="40" as="geometry" />
        </mxCell>
        <mxCell id="8hWpj6Z_eRL1QJvixAke-2" value="" style="endArrow=classic;html=1;rounded=0;exitX=1;exitY=0.5;exitDx=0;exitDy=0;" parent="1" edge="1" source="2RnIGo9YH2eeMHFv2aYu-1">
          <mxGeometry width="50" height="50" relative="1" as="geometry">
            <mxPoint x="220" y="300" as="sourcePoint" />
            <mxPoint x="280" y="299.76" as="targetPoint" />
          </mxGeometry>
        </mxCell>
        <mxCell id="8hWpj6Z_eRL1QJvixAke-3" value="" style="endArrow=classic;html=1;rounded=0;exitX=1;exitY=0.5;exitDx=0;exitDy=0;entryX=0;entryY=0.5;entryDx=0;entryDy=0;" parent="1" source="8hWpj6Z_eRL1QJvixAke-1" edge="1" target="2RnIGo9YH2eeMHFv2aYu-8">
          <mxGeometry width="50" height="50" relative="1" as="geometry">
            <mxPoint x="445" y="299.76" as="sourcePoint" />
            <mxPoint x="400" y="300" as="targetPoint" />
          </mxGeometry>
        </mxCell>
        <mxCell id="8hWpj6Z_eRL1QJvixAke-7" value="" style="endArrow=classic;html=1;rounded=0;flowAnimation=0;shadow=0;strokeWidth=1;exitX=0.5;exitY=1;exitDx=0;exitDy=0;" parent="1" source="8hWpj6Z_eRL1QJvixAke-1" edge="1">
          <mxGeometry width="50" height="50" relative="1" as="geometry">
            <mxPoint x="319.76" y="320" as="sourcePoint" />
            <mxPoint x="300" y="360" as="targetPoint" />
          </mxGeometry>
        </mxCell>
        <mxCell id="8hWpj6Z_eRL1QJvixAke-9" value="&lt;div&gt;$$h(x)$$&lt;/div&gt;" style="text;html=1;align=center;verticalAlign=middle;whiteSpace=wrap;rounded=0;" parent="1" vertex="1">
          <mxGeometry x="170" y="270" width="60" height="30" as="geometry" />
        </mxCell>
        <mxCell id="8hWpj6Z_eRL1QJvixAke-10" value="&lt;div&gt;$$f(h(x))$$&lt;/div&gt;" style="text;html=1;align=center;verticalAlign=middle;whiteSpace=wrap;rounded=0;" parent="1" vertex="1">
          <mxGeometry x="345" y="270" width="60" height="30" as="geometry" />
        </mxCell>
        <mxCell id="2RnIGo9YH2eeMHFv2aYu-1" value="$$h$$" style="rounded=0;whiteSpace=wrap;html=1;" vertex="1" parent="1">
          <mxGeometry x="80" y="280" width="40" height="40" as="geometry" />
        </mxCell>
        <mxCell id="2RnIGo9YH2eeMHFv2aYu-2" value="" style="endArrow=classic;html=1;rounded=0;entryX=0;entryY=0.5;entryDx=0;entryDy=0;" edge="1" parent="1" target="2RnIGo9YH2eeMHFv2aYu-1">
          <mxGeometry width="50" height="50" relative="1" as="geometry">
            <mxPoint x="-120" y="300" as="sourcePoint" />
            <mxPoint x="60" y="300" as="targetPoint" />
          </mxGeometry>
        </mxCell>
        <mxCell id="2RnIGo9YH2eeMHFv2aYu-5" value="" style="endArrow=classic;html=1;rounded=0;flowAnimation=0;shadow=0;strokeWidth=1;exitX=0.5;exitY=1;exitDx=0;exitDy=0;" edge="1" parent="1" source="2RnIGo9YH2eeMHFv2aYu-1">
          <mxGeometry width="50" height="50" relative="1" as="geometry">
            <mxPoint x="18.75999999999999" y="320" as="sourcePoint" />
            <mxPoint x="100" y="360" as="targetPoint" />
          </mxGeometry>
        </mxCell>
        <mxCell id="2RnIGo9YH2eeMHFv2aYu-6" value="&lt;div&gt;$$x$$&lt;/div&gt;" style="text;html=1;align=center;verticalAlign=middle;whiteSpace=wrap;rounded=0;" vertex="1" parent="1">
          <mxGeometry x="-49" y="270" width="60" height="30" as="geometry" />
        </mxCell>
        <mxCell id="2RnIGo9YH2eeMHFv2aYu-8" value="$$g$$" style="rounded=0;whiteSpace=wrap;html=1;" vertex="1" parent="1">
          <mxGeometry x="425" y="280" width="40" height="40" as="geometry" />
        </mxCell>
        <mxCell id="2RnIGo9YH2eeMHFv2aYu-9" value="" style="endArrow=classic;html=1;rounded=0;exitX=1;exitY=0.5;exitDx=0;exitDy=0;" edge="1" parent="1" source="2RnIGo9YH2eeMHFv2aYu-8">
          <mxGeometry width="50" height="50" relative="1" as="geometry">
            <mxPoint x="590" y="299.76" as="sourcePoint" />
            <mxPoint x="545" y="300" as="targetPoint" />
          </mxGeometry>
        </mxCell>
        <mxCell id="2RnIGo9YH2eeMHFv2aYu-10" value="&lt;div&gt;$$g(f(h(x)))$$&lt;/div&gt;" style="text;html=1;align=center;verticalAlign=middle;whiteSpace=wrap;rounded=0;" vertex="1" parent="1">
          <mxGeometry x="475" y="270" width="60" height="30" as="geometry" />
        </mxCell>
        <mxCell id="2RnIGo9YH2eeMHFv2aYu-11" value="" style="endArrow=classic;html=1;rounded=0;flowAnimation=0;shadow=0;strokeWidth=1;exitX=0.5;exitY=1;exitDx=0;exitDy=0;" edge="1" parent="1" source="2RnIGo9YH2eeMHFv2aYu-8">
          <mxGeometry width="50" height="50" relative="1" as="geometry">
            <mxPoint x="444.71" y="330" as="sourcePoint" />
            <mxPoint x="445" y="360" as="targetPoint" />
          </mxGeometry>
        </mxCell>
        <mxCell id="2RnIGo9YH2eeMHFv2aYu-12" value="$$f&#39;(\cdot) \cdot$$" style="rounded=0;whiteSpace=wrap;html=1;" vertex="1" parent="1">
          <mxGeometry x="280" y="360" width="40" height="40" as="geometry" />
        </mxCell>
        <mxCell id="2RnIGo9YH2eeMHFv2aYu-13" value="" style="endArrow=classic;html=1;rounded=0;exitX=0;exitY=0.5;exitDx=0;exitDy=0;entryX=1;entryY=0.5;entryDx=0;entryDy=0;" edge="1" parent="1" source="2RnIGo9YH2eeMHFv2aYu-12" target="2RnIGo9YH2eeMHFv2aYu-17">
          <mxGeometry width="50" height="50" relative="1" as="geometry">
            <mxPoint x="220" y="380" as="sourcePoint" />
            <mxPoint x="240" y="400" as="targetPoint" />
          </mxGeometry>
        </mxCell>
        <mxCell id="2RnIGo9YH2eeMHFv2aYu-14" value="" style="endArrow=classic;html=1;rounded=0;entryX=1;entryY=0.5;entryDx=0;entryDy=0;exitX=0;exitY=0.5;exitDx=0;exitDy=0;" edge="1" parent="1" source="2RnIGo9YH2eeMHFv2aYu-20" target="2RnIGo9YH2eeMHFv2aYu-12">
          <mxGeometry width="50" height="50" relative="1" as="geometry">
            <mxPoint x="360" y="400" as="sourcePoint" />
            <mxPoint x="400" y="380" as="targetPoint" />
          </mxGeometry>
        </mxCell>
        <mxCell id="2RnIGo9YH2eeMHFv2aYu-17" value="$$h&#39;(\cdot) \cdot$$" style="rounded=0;whiteSpace=wrap;html=1;" vertex="1" parent="1">
          <mxGeometry x="80" y="360" width="40" height="40" as="geometry" />
        </mxCell>
        <mxCell id="2RnIGo9YH2eeMHFv2aYu-18" value="" style="endArrow=classic;html=1;rounded=0;exitX=0;exitY=0.5;exitDx=0;exitDy=0;" edge="1" parent="1" source="2RnIGo9YH2eeMHFv2aYu-17">
          <mxGeometry width="50" height="50" relative="1" as="geometry">
            <mxPoint x="40" y="400" as="sourcePoint" />
            <mxPoint x="-120" y="380" as="targetPoint" />
          </mxGeometry>
        </mxCell>
        <mxCell id="2RnIGo9YH2eeMHFv2aYu-20" value="$$g&#39;(\cdot) \cdot$$" style="rounded=0;whiteSpace=wrap;html=1;" vertex="1" parent="1">
          <mxGeometry x="425" y="360" width="40" height="40" as="geometry" />
        </mxCell>
        <mxCell id="2RnIGo9YH2eeMHFv2aYu-21" value="" style="endArrow=classic;html=1;rounded=0;entryX=1;entryY=0.5;entryDx=0;entryDy=0;" edge="1" parent="1" target="2RnIGo9YH2eeMHFv2aYu-20">
          <mxGeometry width="50" height="50" relative="1" as="geometry">
            <mxPoint x="545" y="380" as="sourcePoint" />
            <mxPoint x="545" y="380" as="targetPoint" />
          </mxGeometry>
        </mxCell>
        <mxCell id="2RnIGo9YH2eeMHFv2aYu-23" value="&lt;div&gt;$$1$$&lt;/div&gt;" style="text;html=1;align=center;verticalAlign=middle;whiteSpace=wrap;rounded=0;" vertex="1" parent="1">
          <mxGeometry x="475" y="350" width="60" height="30" as="geometry" />
        </mxCell>
        <mxCell id="2RnIGo9YH2eeMHFv2aYu-24" value="$$g&#39;(f(h(x))) \cdot 1$$" style="text;html=1;align=center;verticalAlign=middle;whiteSpace=wrap;rounded=0;" vertex="1" parent="1">
          <mxGeometry x="330" y="350" width="90" height="30" as="geometry" />
        </mxCell>
        <mxCell id="2RnIGo9YH2eeMHFv2aYu-25" value="$$f&#39;(h(x)) \cdot g&#39;(f(h(x))) \cdot 1$$" style="text;html=1;align=center;verticalAlign=middle;whiteSpace=wrap;rounded=0;" vertex="1" parent="1">
          <mxGeometry x="120" y="350" width="160" height="30" as="geometry" />
        </mxCell>
        <mxCell id="2RnIGo9YH2eeMHFv2aYu-26" value="$$h&#39;(x) \cdot f&#39;(h(x)) \cdot g&#39;(f(h(x))) \cdot 1$$" style="text;html=1;align=center;verticalAlign=middle;whiteSpace=wrap;rounded=0;" vertex="1" parent="1">
          <mxGeometry x="-99" y="350" width="160" height="30" as="geometry" />
        </mxCell>
      </root>
    </mxGraphModel>
  </diagram>
</mxfile>
